# xmcd CD database file
#
# Track frame offsets:
#	225
#	36606
#	66545
#	95948
#	102003
#	126382
#	162015
#	190657
#	217730
#
# Disc length: 3524 seconds
#
# Revision: 0
# Processed by: cddbd v1.5.2PL0 Copyright (c) Steve Scherf et al.
# Submitted via: CDex 1.51
#
DISCID=830dc109
DTITLE=Feinkost Decker - Feinkost Decker
DYEAR=2007
DGENRE=Jazz
TTITLE0=Frost
TTITLE1=Trillerpfeife
TTITLE2=Fast Food
TTITLE3=Pankreas Punk
TTITLE4=Waldmeister
TTITLE5=Flat Iron
TTITLE6=Jochen's Party
TTITLE7=Carla's Play
TTITLE8=Suppenkasper
EXTD=YEAR: 2007
EXTT0=
EXTT1=
EXTT2=
EXTT3=
EXTT4=
EXTT5=
EXTT6=
EXTT7=
EXTT8=
PLAYORDER=
